<?xml version="1.0" encoding="UTF-8"?>
<svg version="1.1" xmlns="http://www.w3.org/2000/svg" width="66" height="51">
<path d="M0 0 C3.14821059 0.89132641 4.95149325 2.20844718 7.15234375 4.609375 C9.12797497 8.55372963 9.39571293 11.78868367 9.33984375 16.171875 C9.33339844 17.28691406 9.32695313 18.40195312 9.3203125 19.55078125 C9.18114251 22.08496959 8.88983766 24.19629493 8.15234375 26.609375 C9.14234375 26.609375 10.13234375 26.609375 11.15234375 26.609375 C12.40234375 28.546875 12.40234375 28.546875 13.15234375 31.609375 C11.6053031 37.35107621 8.88376312 41.95559697 4.15234375 45.609375 C1.18394388 46.19659483 -1.64945417 46.08591158 -4.66015625 45.921875 C-5.44841797 45.89931641 -6.23667969 45.87675781 -7.04882812 45.85351562 C-8.98259554 45.79491661 -10.91537792 45.70524327 -12.84765625 45.609375 C-12.84765625 46.599375 -12.84765625 47.589375 -12.84765625 48.609375 C-13.34265625 48.3 -13.83765625 47.990625 -14.34765625 47.671875 C-20.56008554 45.03159255 -25.60154571 45.3271423 -31.84765625 47.609375 C-32.80285156 48.12951172 -32.80285156 48.12951172 -33.77734375 48.66015625 C-37.37811969 50.31107805 -40.97438785 50.1732477 -44.84765625 49.609375 C-48.03736023 47.86953646 -50.29461118 46.16242007 -52.84765625 43.609375 C-52.7529812 40.01172321 -52.07602785 38.83173682 -49.47265625 36.296875 C-46.84765625 34.609375 -46.84765625 34.609375 -43.84765625 34.609375 C-44.05390625 33.578125 -44.26015625 32.546875 -44.47265625 31.484375 C-44.85960028 27.4859534 -44.36648701 25.27243743 -42.84765625 21.609375 C-39.87765625 21.939375 -36.90765625 22.269375 -33.84765625 22.609375 C-32.83225513 18.50713915 -32.83225513 18.50713915 -33.84765625 14.609375 C-33.39453125 12.734375 -33.39453125 12.734375 -32.59765625 10.609375 C-32.345 9.908125 -32.09234375 9.206875 -31.83203125 8.484375 C-30.84765625 6.609375 -30.84765625 6.609375 -27.84765625 4.609375 C-22.24624813 4.07077807 -18.76591735 5.20043079 -13.84765625 7.609375 C-13.50734375 6.743125 -13.50734375 6.743125 -13.16015625 5.859375 C-9.79948356 0.09822181 -6.29760797 -1.0478549 0 0 Z M-38.84765625 24.609375 C-38.51765625 25.269375 -38.18765625 25.929375 -37.84765625 26.609375 C-37.18765625 26.279375 -36.52765625 25.949375 -35.84765625 25.609375 C-36.83765625 25.279375 -37.82765625 24.949375 -38.84765625 24.609375 Z M-41.84765625 26.609375 C-41.84765625 27.929375 -41.84765625 29.249375 -41.84765625 30.609375 C-40.85765625 30.609375 -39.86765625 30.609375 -38.84765625 30.609375 C-39.50765625 29.289375 -40.16765625 27.969375 -40.84765625 26.609375 C-41.17765625 26.609375 -41.50765625 26.609375 -41.84765625 26.609375 Z M-33.84765625 27.609375 C-34.17765625 28.929375 -34.50765625 30.249375 -34.84765625 31.609375 C-33.85765625 31.939375 -32.86765625 32.269375 -31.84765625 32.609375 C-31.51765625 31.619375 -31.18765625 30.629375 -30.84765625 29.609375 C-31.83765625 28.949375 -32.82765625 28.289375 -33.84765625 27.609375 Z M-40.84765625 32.609375 C-40.18765625 33.929375 -39.52765625 35.249375 -38.84765625 36.609375 C-37.52765625 36.279375 -36.20765625 35.949375 -34.84765625 35.609375 C-35.50765625 34.619375 -36.16765625 33.629375 -36.84765625 32.609375 C-38.16765625 32.609375 -39.48765625 32.609375 -40.84765625 32.609375 Z M-29.84765625 33.609375 C-30.17765625 34.929375 -30.50765625 36.249375 -30.84765625 37.609375 C-29.85765625 38.104375 -29.85765625 38.104375 -28.84765625 38.609375 C-28.84765625 36.959375 -28.84765625 35.309375 -28.84765625 33.609375 C-29.17765625 33.609375 -29.50765625 33.609375 -29.84765625 33.609375 Z M-43.84765625 36.609375 C-43.18765625 37.929375 -42.52765625 39.249375 -41.84765625 40.609375 C-40.85765625 40.279375 -39.86765625 39.949375 -38.84765625 39.609375 C-39.50765625 39.609375 -40.16765625 39.609375 -40.84765625 39.609375 C-41.17765625 38.619375 -41.50765625 37.629375 -41.84765625 36.609375 C-42.50765625 36.609375 -43.16765625 36.609375 -43.84765625 36.609375 Z M-47.84765625 38.609375 C-48.17765625 39.269375 -48.50765625 39.929375 -48.84765625 40.609375 C-47.85765625 40.609375 -46.86765625 40.609375 -45.84765625 40.609375 C-45.84765625 39.949375 -45.84765625 39.289375 -45.84765625 38.609375 C-46.50765625 38.609375 -47.16765625 38.609375 -47.84765625 38.609375 Z M-35.84765625 38.609375 C-33.86765625 39.599375 -33.86765625 39.599375 -31.84765625 40.609375 C-32.17765625 39.949375 -32.50765625 39.289375 -32.84765625 38.609375 C-33.83765625 38.609375 -34.82765625 38.609375 -35.84765625 38.609375 Z M-48.84765625 42.609375 C-47.85765625 43.599375 -46.86765625 44.589375 -45.84765625 45.609375 C-45.51765625 44.949375 -45.18765625 44.289375 -44.84765625 43.609375 C-46.16765625 43.279375 -47.48765625 42.949375 -48.84765625 42.609375 Z M-41.84765625 43.609375 C-42.17765625 44.599375 -42.50765625 45.589375 -42.84765625 46.609375 C-41.19765625 46.279375 -39.54765625 45.949375 -37.84765625 45.609375 C-37.84765625 44.949375 -37.84765625 44.289375 -37.84765625 43.609375 C-39.16765625 43.609375 -40.48765625 43.609375 -41.84765625 43.609375 Z " fill="#384A4C" transform="translate(52.84765625,0.390625)"/>
<path d="M0 0 C0.66 0 1.32 0 2 0 C2.12117188 0.56589844 2.24234375 1.13179687 2.3671875 1.71484375 C2.53476562 2.44832031 2.70234375 3.18179687 2.875 3.9375 C3.11863281 5.03384766 3.11863281 5.03384766 3.3671875 6.15234375 C3.82961523 8.20700294 3.82961523 8.20700294 6 9 C6 8.34 6 7.68 6 7 C6.66 7 7.32 7 8 7 C8.66 8.65 9.32 10.3 10 12 C8.35 12 6.7 12 5 12 C5.33 12.66 5.66 13.32 6 14 C6.23188406 21.30434783 6.23188406 21.30434783 5 25 C5.99 25.99 6.98 26.98 8 28 C6.9275 28.28875 5.855 28.5775 4.75 28.875 C1.22076871 29.79915107 1.22076871 29.79915107 -0.9609375 31.046875 C-4.53741509 32.71863847 -8.14332182 32.56145748 -12 32 C-15.18970398 30.26016146 -17.44695493 28.55304507 -20 26 C-19.90532495 22.40234821 -19.2283716 21.22236182 -16.625 18.6875 C-14 17 -14 17 -11 17 C-11.20625 15.96875 -11.4125 14.9375 -11.625 13.875 C-12.01194403 9.8765784 -11.51883076 7.66306243 -10 4 C-7.03 4.33 -4.06 4.66 -1 5 C-0.67 3.35 -0.34 1.7 0 0 Z M-6 7 C-5.67 7.66 -5.34 8.32 -5 9 C-4.34 8.67 -3.68 8.34 -3 8 C-3.99 7.67 -4.98 7.34 -6 7 Z M-9 9 C-9 10.32 -9 11.64 -9 13 C-8.01 13 -7.02 13 -6 13 C-6.66 11.68 -7.32 10.36 -8 9 C-8.33 9 -8.66 9 -9 9 Z M-1 10 C-1.33 11.32 -1.66 12.64 -2 14 C-1.01 14.33 -0.02 14.66 1 15 C1.33 14.01 1.66 13.02 2 12 C1.01 11.34 0.02 10.68 -1 10 Z M-8 15 C-7.34 16.32 -6.68 17.64 -6 19 C-4.68 18.67 -3.36 18.34 -2 18 C-2.66 17.01 -3.32 16.02 -4 15 C-5.32 15 -6.64 15 -8 15 Z M3 16 C2.67 17.32 2.34 18.64 2 20 C2.99 20.495 2.99 20.495 4 21 C4 19.35 4 17.7 4 16 C3.67 16 3.34 16 3 16 Z M-11 19 C-10.34 20.32 -9.68 21.64 -9 23 C-8.01 22.67 -7.02 22.34 -6 22 C-6.66 22 -7.32 22 -8 22 C-8.33 21.01 -8.66 20.02 -9 19 C-9.66 19 -10.32 19 -11 19 Z M-15 21 C-15.33 21.66 -15.66 22.32 -16 23 C-15.01 23 -14.02 23 -13 23 C-13 22.34 -13 21.68 -13 21 C-13.66 21 -14.32 21 -15 21 Z M-3 21 C-1.02 21.99 -1.02 21.99 1 23 C0.67 22.34 0.34 21.68 0 21 C-0.99 21 -1.98 21 -3 21 Z M-16 25 C-15.01 25.99 -14.02 26.98 -13 28 C-12.67 27.34 -12.34 26.68 -12 26 C-13.32 25.67 -14.64 25.34 -16 25 Z M-9 26 C-9.33 26.99 -9.66 27.98 -10 29 C-8.35 28.67 -6.7 28.34 -5 28 C-5 27.34 -5 26.68 -5 26 C-6.32 26 -7.64 26 -9 26 Z " fill="#253D4D" transform="translate(20,18)"/>
<path d="M0 0 C2.375 -0.125 2.375 -0.125 5 0 C5.66 0.66 6.32 1.32 7 2 C7.33 1.34 7.66 0.68 8 0 C10.49361571 1.20381448 12.68143083 2.45428722 15 4 C14.34 2.68 13.68 1.36 13 0 C16.96 0 20.92 0 25 0 C24.01 0.495 24.01 0.495 23 1 C23 1.66 23 2.32 23 3 C23.639375 2.505 24.27875 2.01 24.9375 1.5 C29.04023483 -0.50950277 32.51443582 -0.26385672 37 0 C36.65930765 3.15140423 36.41923159 4.60781561 34.0625 6.8125 C32 8 32 8 30 8 C30 8.66 30 9.32 30 10 C31.98 9.01 33.96 8.02 36 7 C34.60840337 10.47899158 33.36748512 11.48052501 30 13 C29.54109375 12.45730469 29.0821875 11.91460937 28.609375 11.35546875 C27.99578125 10.64003906 27.3821875 9.92460938 26.75 9.1875 C26.14671875 8.47980469 25.5434375 7.77210937 24.921875 7.04296875 C23.07629602 5.08110329 21.20054668 3.54330375 19 2 C19.70576172 2.79664063 19.70576172 2.79664063 20.42578125 3.609375 C21.04839844 4.31578125 21.67101562 5.0221875 22.3125 5.75 C23.23482422 6.79414062 23.23482422 6.79414062 24.17578125 7.859375 C25.87314734 9.85114506 27.45477809 11.88898915 29 14 C26.6875 14.625 26.6875 14.625 24 15 C23.01 14.34 22.02 13.68 21 13 C21.33 13.66 21.66 14.32 22 15 C18 15 14 15 10 15 C8.865625 15.20625 7.73125 15.4125 6.5625 15.625 C3 16 3 16 0 14 C0.33 13.01 0.66 12.02 1 11 C1.15754704 9.04322445 1.15754704 9.04322445 1.125 7 C1.12757812 6.319375 1.13015625 5.63875 1.1328125 4.9375 C1.06631126 2.78125219 1.06631126 2.78125219 0 0 Z " fill="#6F9A40" transform="translate(24,29)"/>
<path d="M0 0 C3.91304179 1.26909463 5.85610288 2.46256976 8 6 C9.28317892 9.84953676 9.06643637 12.94738135 9 17 C7.22222721 13.71795793 6.04555792 10.3379754 4.87890625 6.8046875 C4.0152524 4.64531662 4.0152524 4.64531662 1 3 C1.3609375 3.51046875 1.721875 4.0209375 2.09375 4.546875 C6.13690856 10.88115674 7.1060611 16.53699827 6 24 C5.34 24.66 4.68 25.32 4 26 C4 25.34 4 24.68 4 24 C3.46375 24.33 2.9275 24.66 2.375 25 C-0.5391061 26.22699204 -2.86867708 26.14233286 -6 26 C-6.37125 24.205625 -6.37125 24.205625 -6.75 22.375 C-7.75311472 18.29759125 -9.53741013 15.41585047 -12 12 C-13 9 -13 9 -12.28515625 7.17578125 C-9.03411842 2.22132424 -9.03411842 2.22132424 -5.8828125 1.546875 C-3.6875 1.5625 -3.6875 1.5625 0 2 C0 1.34 0 0.68 0 0 Z " fill="#F3BA40" transform="translate(53,1)"/>
<path d="M0 0 C5.48211181 0.26105294 9.09730985 2.31513442 13 6 C17.04830059 10.94340223 18 13.36294577 18 20 C12.39 20 6.78 20 1 20 C1 19.34 1 18.68 1 18 C0.34 18 -0.32 18 -1 18 C-1 18.66 -1 19.32 -1 20 C-1.99 19.67 -2.98 19.34 -4 19 C-5.60483154 15.3526556 -5.56949094 10.90401023 -5 7 C-3.50251293 4.34316811 -2.15347249 2.15347249 0 0 Z " fill="#F5BB40" transform="translate(27,7)"/>
<path d="M0 0 C0.66 0 1.32 0 2 0 C3.25 1.9375 3.25 1.9375 4 5 C2.45295935 10.74170121 -0.26858063 15.34622197 -5 19 C-7.96839987 19.58721983 -10.80179792 19.47653658 -13.8125 19.3125 C-14.60076172 19.28994141 -15.38902344 19.26738281 -16.20117188 19.24414062 C-18.13493929 19.18554161 -20.06772167 19.09586827 -22 19 C-22 19.99 -22 20.98 -22 22 C-22.515625 21.690625 -23.03125 21.38125 -23.5625 21.0625 C-26.66665423 19.70940713 -29.65115007 19.38640576 -33 19 C-32.67 18.34 -32.34 17.68 -32 17 C-30.68 17 -29.36 17 -28 17 C-27.67 16.34 -27.34 15.68 -27 15 C-26.67 15.33 -26.34 15.66 -26 16 C-24.48071962 16.07179964 -22.95832518 16.08392007 -21.4375 16.0625 C-20.61121094 16.05347656 -19.78492188 16.04445313 -18.93359375 16.03515625 C-18.29550781 16.02355469 -17.65742187 16.01195313 -17 16 C-17.66 15.01 -18.32 14.02 -19 13 C-18.443125 13.309375 -17.88625 13.61875 -17.3125 13.9375 C-14.87459567 15.05761821 -12.63775814 15.56037364 -10 16 C-10.93590504 14.8944811 -11.87379858 13.79064547 -12.8125 12.6875 C-13.33457031 12.07261719 -13.85664062 11.45773438 -14.39453125 10.82421875 C-15.96301245 8.9856727 -15.96301245 8.9856727 -17.69921875 7.39453125 C-19 6 -19 6 -19 4 C-15.84164893 5.39750048 -13.67727175 7.05198234 -11.25 9.5 C-10.63640625 10.1084375 -10.0228125 10.716875 -9.390625 11.34375 C-8 13 -8 13 -8 15 C-6.35 13.35 -4.7 11.7 -3 10 C-4.65 10.66 -6.3 11.32 -8 12 C-8 11.34 -8 10.68 -8 10 C-7.05125 9.4225 -6.1025 8.845 -5.125 8.25 C-1.5705887 5.69082387 -0.95050207 4.18220911 0 0 Z " fill="#456547" transform="translate(62,27)"/>
<path d="M0 0 C3.96 0 7.92 0 12 0 C11.01 0.495 11.01 0.495 10 1 C10 1.66 10 2.32 10 3 C10.639375 2.505 11.27875 2.01 11.9375 1.5 C16.04023483 -0.50950277 19.51443582 -0.26385672 24 0 C23.65930765 3.15140423 23.41923159 4.60781561 21.0625 6.8125 C19 8 19 8 17 8 C17 8.66 17 9.32 17 10 C18.98 9.01 20.96 8.02 23 7 C21.60840337 10.47899158 20.36748512 11.48052501 17 13 C16.54109375 12.45730469 16.0821875 11.91460937 15.609375 11.35546875 C14.99578125 10.64003906 14.3821875 9.92460938 13.75 9.1875 C13.14671875 8.47980469 12.5434375 7.77210937 11.921875 7.04296875 C10.07629602 5.08110329 8.20054668 3.54330375 6 2 C6.66 3.32 7.32 4.64 8 6 C6.68 6.33 5.36 6.66 4 7 C4 6.01 4 5.02 4 4 C3.34 4 2.68 4 2 4 C1.34 2.68 0.68 1.36 0 0 Z " fill="#739F3F" transform="translate(37,29)"/>
<path d="M0 0 C2.375 -0.125 2.375 -0.125 5 0 C5.66 0.66 6.32 1.32 7 2 C7.33 1.34 7.66 0.68 8 0 C11.09162264 1.38589981 12.49183541 2.49183541 15 5 C12.03 7.31 9.06 9.62 6 12 C6.99 12 7.98 12 9 12 C9 12.99 9 13.98 9 15 C6.1875 15.625 6.1875 15.625 3 16 C2.01 15.34 1.02 14.68 0 14 C0.33 13.01 0.66 12.02 1 11 C1.15754704 9.04322445 1.15754704 9.04322445 1.125 7 C1.12757812 6.319375 1.13015625 5.63875 1.1328125 4.9375 C1.06631126 2.78125219 1.06631126 2.78125219 0 0 Z " fill="#729F3F" transform="translate(24,29)"/>
<path d="M0 0 C0.53625 0.28875 1.0725 0.5775 1.625 0.875 C4.35280484 2.16711808 7.12612718 3.08558592 10 4 C10 4.66 10 5.32 10 6 C5.71 6 1.42 6 -3 6 C-3 6.99 -3 7.98 -3 9 C-3.515625 8.690625 -4.03125 8.38125 -4.5625 8.0625 C-7.66665423 6.70940713 -10.65115007 6.38640576 -14 6 C-13.67 5.34 -13.34 4.68 -13 4 C-11.68 4 -10.36 4 -9 4 C-8.67 3.34 -8.34 2.68 -8 2 C-7.67 2.33 -7.34 2.66 -7 3 C-5.48071962 3.07179964 -3.95832518 3.08392007 -2.4375 3.0625 C-1.61121094 3.05347656 -0.78492188 3.04445312 0.06640625 3.03515625 C1.02353516 3.01775391 1.02353516 3.01775391 2 3 C1.34 2.01 0.68 1.02 0 0 Z " fill="#263E4D" transform="translate(43,40)"/>
<path d="M0 0 C2.4375 1.5 2.4375 1.5 4 3 C1 4 1 4 -2 3.375 C-4.90786067 2.69616897 -4.90786067 2.69616897 -6.75 4.0625 C-8.37369182 6.57922231 -9.17195084 9.133676 -10 12 C-10.99 11.67 -11.98 11.34 -13 11 C-12.57576756 9.53775201 -12.13509755 8.08026588 -11.6875 6.625 C-11.44386719 5.81289062 -11.20023438 5.00078125 -10.94921875 4.1640625 C-8.76713431 -0.81073083 -4.77270475 -0.41865831 0 0 Z " fill="#273F4C" transform="translate(32,5)"/>
<path d="M0 0 C1.8125 0.5 1.8125 0.5 4 2 C6.65716506 7.60957069 7.58645936 12.83967046 8 19 C7.01 19.66 6.02 20.32 5 21 C4.97421875 20.21496094 4.9484375 19.42992188 4.921875 18.62109375 C4.55792368 11.87972266 3.7700275 7.59423435 0 2 C0 1.34 0 0.68 0 0 Z " fill="#414E4C" transform="translate(54,4)"/>
<path d="M0 0 C3.96 0 7.92 0 12 0 C11.01 0.495 11.01 0.495 10 1 C9.67 1.99 9.34 2.98 9 4 C8.01 3.34 7.02 2.68 6 2 C6.66 3.32 7.32 4.64 8 6 C6.68 6.33 5.36 6.66 4 7 C4 6.01 4 5.02 4 4 C3.34 4 2.68 4 2 4 C1.34 2.68 0.68 1.36 0 0 Z " fill="#7EAD3D" transform="translate(37,29)"/>
<path d="M0 0 C4.58002044 2.06252576 7.90334319 5.06398621 11 9 C11.9375 12.4375 11.9375 12.4375 12 15 C11.34 15 10.68 15 10 15 C9.75507812 14.26136719 9.51015625 13.52273437 9.2578125 12.76171875 C7.86373032 9.70079917 6.32914345 8.08632108 3.875 5.8125 C2.54850864 4.57806053 1.24749467 3.31422113 0 2 C0 1.34 0 0.68 0 0 Z " fill="#3B584A" transform="translate(43,31)"/>
<path d="M0 0 C2.88437779 1.29299694 4.87219421 2.65941363 7 5 C5.02 6.32 3.04 7.64 1 9 C0.01 7.02 -0.98 5.04 -2 3 C-1.34 3 -0.68 3 0 3 C0 2.01 0 1.02 0 0 Z " fill="#7CAB3D" transform="translate(32,29)"/>
<path d="M0 0 C3.25543229 0.34879632 4.01873107 1.02133261 6.25 3.5625 C7.11625 4.7690625 7.11625 4.7690625 8 6 C6.35 6.33 4.7 6.66 3 7 C1.68 5.35 0.36 3.7 -1 2 C-0.67 1.34 -0.34 0.68 0 0 Z " fill="#79A73E" transform="translate(45,37)"/>
<path d="M0 0 C-1.32332319 3.96996957 -4.0089399 5.76036395 -7.24609375 8.14453125 C-9 9 -9 9 -12 8 C-10.37982158 6.66081194 -8.75370657 5.3288031 -7.125 4 C-6.22007813 3.2575 -5.31515625 2.515 -4.3828125 1.75 C-2 0 -2 0 0 0 Z " fill="#324E4B" transform="translate(41,33)"/>
<path d="M0 0 C0.99 1.32 1.98 2.64 3 4 C2.34 4.66 1.68 5.32 1 6 C-1.72869407 5.96712417 -4.2966618 5.43602229 -7 5 C-6.01 4.01 -5.02 3.02 -4 2 C-3.34 2.33 -2.68 2.66 -2 3 C-2 2.34 -2 1.68 -2 1 C-1.34 0.67 -0.68 0.34 0 0 Z " fill="#2A414D" transform="translate(60,24)"/>
<path d="M0 0 C1.875 0.625 1.875 0.625 4 2 C5.25 5.125 5.25 5.125 6 8 C5.01 8.495 5.01 8.495 4 9 C0 2.25 0 2.25 0 0 Z " fill="#4C554B" transform="translate(54,4)"/>
</svg>
