<svg width="20" height="20" viewBox="0 0 20 20" fill="none" xmlns="http://www.w3.org/2000/svg">
<g clip-path="url(#clip0_6511_2375)">
<g clip-path="url(#clip1_6511_2375)">
<path fill-rule="evenodd" clip-rule="evenodd" d="M8.08253 10.0644V17.2257C8.08253 17.3225 8.16318 17.4193 8.27608 17.4193H10.9374C11.0341 17.4193 11.1309 17.3386 11.1309 17.2257V9.93539H13.0503C13.1471 9.93539 13.2277 9.85474 13.2438 9.75797L13.4051 7.58055C13.4212 7.46765 13.3245 7.37087 13.2116 7.37087H11.1148V5.82249C11.1148 5.45152 11.4051 5.1612 11.7761 5.1612H13.26C13.3567 5.1612 13.4535 5.08055 13.4535 4.96765V2.79023C13.4535 2.69345 13.3729 2.59668 13.26 2.59668H10.7438C9.27608 2.59668 8.08253 3.79023 8.08253 5.25797V7.37087H6.75995C6.66318 7.37087 6.56641 7.45152 6.56641 7.56442V9.75797C6.56641 9.85474 6.64705 9.95152 6.75995 9.95152H8.08253V10.0644Z" fill="#3BB77E"/>
</g>
</g>
<defs>
<clipPath id="clip0_6511_2375">
<rect width="20" height="20" rx="10" fill="white"/>
</clipPath>
<clipPath id="clip1_6511_2375">
<rect width="20" height="20" fill="white"/>
</clipPath>
</defs>
</svg>
