<svg width="100" height="100" viewBox="0 0 100 100" fill="none" xmlns="http://www.w3.org/2000/svg">
<g clip-path="url(#clip0_6511_2220)">
<g clip-path="url(#clip1_6511_2220)">
<mask id="mask0_6511_2220" style="mask-type:luminance" maskUnits="userSpaceOnUse" x="0" y="0" width="99" height="99">
<path d="M98.8417 0H0V98.8417H98.8417V0Z" fill="white"/>
</mask>
<g mask="url(#mask0_6511_2220)">
<path d="M62.8583 7.14282H48.5725L31.4297 24.2857L40.0011 29.2857L48.5725 20.7143L66.4297 38.5714L72.8583 46.4285L82.144 47.8571L86.4297 40V12.8571L79.2868 7.14282H62.8583Z" fill="#FDC040"/>
<path d="M92.278 20.5545H88.4133L88.417 13.6454C88.4193 9.00692 84.648 5.23114 80.0087 5.22887L50.6771 5.21228H50.6734C49.0039 5.21228 47.4339 5.86232 46.2529 7.04324L2.46366 50.8324C0.874759 52.4214 0 54.5335 0 56.7808C0 59.0281 0.874759 61.1403 2.46366 62.7293L30.8813 91.1468C32.5214 92.787 34.6759 93.6067 36.8296 93.6067C38.9841 93.6067 41.1386 92.787 42.7787 91.1468L70.3487 63.5768C71.1029 62.8227 71.1029 61.6003 70.3487 60.847C69.5946 60.0928 68.3721 60.0928 67.6181 60.847L40.0481 88.417C38.2737 90.1914 35.3863 90.1914 33.6119 88.417L5.19426 59.9994C4.33459 59.1397 3.861 57.9964 3.861 56.7808C3.861 55.5653 4.33459 54.422 5.19426 53.5623L48.9827 9.77385C49.4344 9.32214 50.0347 9.07328 50.6734 9.07328H50.675L80.0066 9.08988C82.5161 9.09062 84.5576 11.1343 84.556 13.6439L84.547 29.821H75.8514C75.1026 29.821 74.4246 29.5147 73.9344 29.0215C74.7421 28.6754 75.4993 28.1754 76.1576 27.5171C78.9319 24.742 78.9319 20.228 76.1576 17.4537C73.3824 14.6785 68.8684 14.6785 66.0933 17.4537C63.319 20.228 63.319 24.742 66.0933 27.5171C67.1219 28.5457 68.3903 29.192 69.7199 29.4583C70.6647 31.9248 73.056 33.682 75.8514 33.682H84.5447L84.5394 42.9363C84.5394 43.575 84.2906 44.1745 83.8389 44.6254L78.539 49.926C77.7849 50.6801 77.7849 51.9025 78.539 52.6567C79.2924 53.41 80.5147 53.41 81.2689 52.6567L86.5694 47.3561C87.7488 46.1758 88.3997 44.6074 88.4004 42.9385L88.4057 33.682H92.278C95.897 33.682 98.8417 30.738 98.8417 27.1183C98.8417 23.4993 95.897 20.5545 92.278 20.5545ZM68.8239 20.1835C69.4589 19.5485 70.2921 19.2318 71.1261 19.2318C71.9594 19.2318 72.7927 19.5493 73.4277 20.1835C73.6283 20.3848 73.7941 20.6073 73.9314 20.8418C71.8124 21.4911 70.1474 23.1871 69.5389 25.3243C69.2831 25.1817 69.0411 25.0044 68.8239 24.7873C67.5547 23.5174 67.5547 21.4527 68.8239 20.1835ZM92.278 29.821H88.408L88.411 24.4155H92.278C93.7681 24.4155 94.9807 25.6281 94.9807 27.1183C94.9807 28.6083 93.7681 29.821 92.278 29.821Z" fill="#3BB77E"/>
<path d="M31.161 53.9198C31.3985 54.7741 32.1745 55.333 33.0191 55.333C33.1911 55.333 33.3652 55.3104 33.538 55.2621L53.3558 49.7458C54.3828 49.46 54.9838 48.3953 54.6981 47.3681C54.4122 46.3418 53.3482 45.7408 52.3204 46.0266L32.5025 51.5421C31.4762 51.8287 30.8752 52.8927 31.161 53.9198Z" fill="#3BB77E"/>
<path d="M39.886 56.4671C38.8106 57.5425 38.2188 58.9715 38.2188 60.4925C38.2188 62.0128 38.8106 63.4418 39.886 64.5172C40.996 65.6265 42.453 66.1815 43.9106 66.1815C45.3683 66.1815 46.826 65.6265 47.936 64.5172C50.1553 62.2978 50.1553 58.6864 47.936 56.4671C45.7167 54.2478 42.1053 54.2478 39.886 56.4671ZM45.2055 61.7865C44.4913 62.5006 43.33 62.5006 42.6159 61.7865C42.2697 61.4412 42.0797 60.9812 42.0797 60.4918C42.0797 60.0031 42.2705 59.5431 42.6159 59.1969C42.9733 58.8402 43.4423 58.6615 43.9106 58.6615C44.3797 58.6615 44.8487 58.8402 45.2055 59.1969C45.9196 59.9111 45.9196 61.0732 45.2055 61.7865Z" fill="#3BB77E"/>
<path d="M48.8902 44.9731C51.1095 42.7531 51.1095 39.1424 48.8902 36.9231C47.815 35.8479 46.3851 35.2559 44.8648 35.2559C43.3445 35.2559 41.9148 35.8479 40.8402 36.9231C38.621 39.1424 38.621 42.7531 40.8402 44.9731C41.9502 46.0824 43.4072 46.6374 44.8648 46.6374C46.3225 46.6374 47.7802 46.0824 48.8902 44.9731ZM43.5701 39.653C43.9162 39.3069 44.3762 39.1169 44.8648 39.1169C45.3542 39.1169 45.8142 39.3069 46.1597 39.653C46.8738 40.3671 46.8738 41.5284 46.1597 42.2426C45.4462 42.9567 44.2842 42.9567 43.5701 42.2426C42.8567 41.5284 42.8567 40.3671 43.5701 39.653Z" fill="#3BB77E"/>
<path d="M19.1995 49.9307C18.4455 49.1765 17.223 49.1765 16.4689 49.9307L10.9835 55.416C10.6216 55.778 10.418 56.2688 10.418 56.7808C10.418 57.293 10.6216 57.7838 10.9835 58.1458L35.464 82.6263C35.8403 83.0025 36.335 83.1911 36.8289 83.1911C37.3229 83.1911 37.8167 83.0025 38.1939 82.6263L74.7949 46.0244C75.549 45.2702 75.549 44.0478 74.7949 43.2938L50.3153 18.8141C49.9533 18.4521 49.4623 18.2485 48.9503 18.2485C48.4383 18.2485 47.9473 18.4521 47.5854 18.8141L27.3897 39.0097C26.6357 39.7638 26.6357 40.9862 27.3897 41.7403C28.1432 42.4937 29.3656 42.4937 30.1196 41.7403L48.9503 22.9097L70.7002 44.6594L36.8289 78.5307L15.079 56.7808L19.1995 52.6605C19.9529 51.9064 19.9536 50.6847 19.1995 49.9307Z" fill="#3BB77E"/>
<path d="M74.4423 54.8209C73.934 54.8209 73.4363 55.0275 73.0773 55.3865C72.7184 55.7455 72.5117 56.2439 72.5117 56.7514C72.5117 57.2589 72.7184 57.7574 73.0773 58.1164C73.4363 58.4754 73.934 58.6819 74.4423 58.6819C74.9497 58.6819 75.4474 58.4754 75.8071 58.1164C76.1661 57.7574 76.3727 57.2589 76.3727 56.7514C76.3727 56.2439 76.1661 55.7455 75.8071 55.3865C75.4474 55.0275 74.9497 54.8209 74.4423 54.8209Z" fill="#3BB77E"/>
<path d="M24.6579 47.1992C25.0191 46.8404 25.2243 46.3441 25.2243 45.8344C25.2243 45.3268 25.0191 44.8307 24.6579 44.4694C24.299 44.1105 23.8027 43.9038 23.2937 43.9038C22.7854 43.9038 22.2877 44.1105 21.9289 44.4694C21.5691 44.8284 21.3633 45.3268 21.3633 45.8344C21.3633 46.3441 21.5691 46.8404 21.9289 47.1992C22.2893 47.5605 22.7854 47.7648 23.2937 47.7648C23.8027 47.7648 24.299 47.5605 24.6579 47.1992Z" fill="#3BB77E"/>
</g>
</g>
</g>
<defs>
<clipPath id="clip0_6511_2220">
<rect width="100" height="100" fill="white"/>
</clipPath>
<clipPath id="clip1_6511_2220">
<rect width="100" height="100" fill="white"/>
</clipPath>
</defs>
</svg>
