<svg width="20" height="20" viewBox="0 0 20 20" fill="none" xmlns="http://www.w3.org/2000/svg">
<g clip-path="url(#clip0_6511_2384)">
<g clip-path="url(#clip1_6511_2384)">
<path d="M14.0633 5.41928C13.5633 5.41928 13.16 5.8225 13.16 6.3225C13.16 6.8225 13.5633 7.22573 14.0633 7.22573C14.5633 7.22573 14.9665 6.8225 14.9665 6.3225C14.9665 5.8225 14.5633 5.41928 14.0633 5.41928ZM10.031 6.58057C7.93422 6.58057 6.22455 8.29024 6.22455 10.387C6.22455 12.4838 7.93422 14.1935 10.031 14.1935C12.1278 14.1935 13.8375 12.4838 13.8375 10.387C13.8375 8.29024 12.1278 6.58057 10.031 6.58057ZM10.031 12.8386C8.67616 12.8386 7.59551 11.7419 7.59551 10.4031C7.59551 9.04831 8.69229 7.96766 10.031 7.96766C11.3858 7.96766 12.4665 9.06444 12.4665 10.4031C12.4665 11.7419 11.3697 12.8386 10.031 12.8386ZM17.7245 7.22573C17.7245 4.66121 15.6439 2.58057 13.0794 2.58057H6.93422C4.36971 2.58057 2.28906 4.66121 2.28906 7.22573V13.3709C2.28906 15.9354 4.36971 18.016 6.93422 18.016H13.0633C15.6278 18.016 17.7084 15.9354 17.7084 13.3709V7.22573H17.7245ZM16.2568 13.3548C16.2568 15.1128 14.8213 16.5483 13.0633 16.5483H6.93422C5.17616 16.5483 3.74068 15.1128 3.74068 13.3548V7.22573C3.74068 5.45153 5.16003 4.03218 6.93422 4.03218H13.0633C14.8213 4.03218 16.2568 5.46766 16.2568 7.22573V13.3548Z" fill="#3BB77E"/>
</g>
</g>
<defs>
<clipPath id="clip0_6511_2384">
<rect width="20" height="20" rx="10" fill="white"/>
</clipPath>
<clipPath id="clip1_6511_2384">
<rect width="20" height="20" fill="white"/>
</clipPath>
</defs>
</svg>
