<svg width="20" height="20" viewBox="0 0 20 20" fill="none" xmlns="http://www.w3.org/2000/svg">
<g clip-path="url(#clip0_6511_2379)">
<g clip-path="url(#clip1_6511_2379)">
<path d="M17.1445 5.90343C16.6929 6.11311 16.1768 6.24214 15.6929 6.32279C15.9349 6.29053 16.2736 5.85504 16.4187 5.69375C16.6284 5.43569 16.8058 5.12924 16.9026 4.80666C16.9187 4.7744 16.9187 4.74214 16.9026 4.72601C16.8703 4.70988 16.8542 4.72601 16.822 4.72601C16.2736 5.01633 15.7091 5.24214 15.0961 5.3873C15.0478 5.40343 15.0155 5.3873 14.9832 5.35504C14.9349 5.29053 14.8865 5.24214 14.8381 5.19375C14.58 4.98408 14.3058 4.80666 13.9994 4.67762C13.5961 4.51633 13.1445 4.43569 12.7091 4.46795C12.2897 4.50021 11.8703 4.61311 11.4994 4.80666C11.1284 5.0002 10.7897 5.2744 10.5155 5.61311C10.2413 5.95182 10.0316 6.35504 9.93486 6.79053C9.83808 7.20988 9.83808 7.61311 9.9026 8.03246C9.91873 8.09698 9.9026 8.11311 9.83808 8.09698C7.45099 7.75827 5.48325 6.91956 3.88647 5.09698C3.82196 5.01633 3.77357 5.01633 3.72518 5.09698C3.03163 6.14537 3.37034 7.82279 4.24131 8.6615C4.35421 8.7744 4.48325 8.8873 4.61228 8.98408C4.56389 9.00021 3.98325 8.93569 3.46712 8.6615C3.4026 8.61311 3.37034 8.64537 3.35421 8.72601C3.35421 8.83891 3.35421 8.93569 3.37034 9.06472C3.49937 10.1292 4.24131 11.1131 5.24131 11.4841C5.35421 11.5325 5.49937 11.5808 5.62841 11.597C5.4026 11.6454 5.16067 11.6776 4.49937 11.6292C4.41873 11.6131 4.38647 11.6615 4.41873 11.726C4.9026 13.0808 5.96712 13.4841 6.77357 13.7099C6.88647 13.726 6.98325 13.726 7.09615 13.7583C7.09615 13.7744 7.08002 13.7744 7.08002 13.7744C6.82196 14.1776 5.9026 14.4841 5.46712 14.6292C4.69292 14.9034 3.83808 15.0163 3.0155 14.9357C2.88647 14.9196 2.85421 14.9196 2.82196 14.9357C2.7897 14.9518 2.82196 14.9841 2.85421 15.0163C3.0155 15.1292 3.19292 15.226 3.37034 15.3228C3.88647 15.597 4.43486 15.8228 4.99937 15.9841C7.93486 16.7905 11.2574 16.1938 13.4671 14.0002C15.1929 12.2905 15.8058 9.91956 15.8058 7.53246C15.8058 7.43569 15.9187 7.3873 15.9832 7.33891C16.4349 7.0002 16.7897 6.59698 17.1284 6.14537C17.2091 6.04859 17.1929 5.95182 17.1929 5.91956V5.90343C17.1929 5.87117 17.2091 5.87117 17.1445 5.90343Z" fill="#3BB77E"/>
<path fill-rule="evenodd" clip-rule="evenodd" d="M7.07995 16.2903C7.12834 16.2903 8.28963 16.2903 7.07995 16.2903C7.06382 16.2903 7.24124 16.2903 7.07995 16.2903ZM7.07995 16.2903C6.83802 16.2903 7.06382 16.2903 7.07995 16.2903V16.2903ZM7.56382 16.3065C7.56382 16.2742 7.82189 16.3065 7.56382 16.3065C7.56382 16.2903 7.59608 16.3065 7.56382 16.3065ZM12.6606 4.5C12.6445 4.51613 12.6283 4.51613 12.5961 4.5C12.6122 4.5 12.6445 4.5 12.6606 4.5Z" fill="white"/>
</g>
</g>
<defs>
<clipPath id="clip0_6511_2379">
<rect width="20" height="20" rx="10" fill="white"/>
</clipPath>
<clipPath id="clip1_6511_2379">
<rect width="20" height="20" fill="white"/>
</clipPath>
</defs>
</svg>
