<svg width="20" height="20" viewBox="0 0 20 20" fill="none" xmlns="http://www.w3.org/2000/svg">
<g clip-path="url(#clip0_6511_2388)">
<g clip-path="url(#clip1_6511_2388)">
<path d="M17.2916 8.06463C17.2916 6.30656 15.8722 4.88721 14.1142 4.88721H5.88836C4.13029 4.88721 2.71094 6.30656 2.71094 8.06463V11.9356C2.71094 13.6937 4.13029 15.113 5.88836 15.113H14.1142C15.8722 15.113 17.2916 13.6937 17.2916 11.9356V8.06463ZM12.098 10.1937L8.82384 12.0001C8.67868 12.0808 8.54965 11.9679 8.54965 11.8066V8.11301C8.54965 7.95172 8.67868 7.83882 8.82384 7.91946L12.1303 9.80656C12.2755 9.90334 12.2432 10.113 12.098 10.1937Z" fill="#3BB77E"/>
</g>
</g>
<defs>
<clipPath id="clip0_6511_2388">
<rect width="20" height="20" rx="10" fill="white"/>
</clipPath>
<clipPath id="clip1_6511_2388">
<rect width="20" height="20" fill="white"/>
</clipPath>
</defs>
</svg>
